<svg width="161" height="161" viewBox="0 0 161 161" fill="none" xmlns="http://www.w3.org/2000/svg">
<circle cx="80.5" cy="80.5" r="80" fill="#D9D9D9"/>
<g clip-path="url(#clip0_23_196)">
<path d="M35.9219 46.375L28.0469 45.4844C28.0469 45.4844 27.9297 50.0547 28.0469 50.4297C28.1641 50.8047 29.0547 58.1641 29.0547 58.1641L24.1094 65.2656L25.375 68.4297L33.1094 73.5156L45.0391 76.8203L56.3359 96.6953L59.125 107.922L55.2578 110.195L54.0391 113.125L55.2578 117.953C55.2578 117.953 60.5312 119.734 61.0234 119.594C61.5156 119.453 69.2734 116.125 69.2734 116.125V112.094L68.7344 105.367L72.5781 93.3203L88.0703 95.2187L102.273 103.469L111.273 98.1484L114.203 102.344L113.57 110.969L111.156 115.422L113.43 118.094L123.086 116.945L126.391 110.734L128.031 100.328L133.117 101.523L137.43 92.1953V79.2578L132.602 57.8125C132.602 57.8125 96.9297 50.3359 95.9219 50.7109C94.9141 51.0859 69.3906 49.1875 69.3906 49.1875L57.0859 49.7031L52 47.0312C52 47.0312 47.9453 42.4609 47.3125 42.4609C46.6797 42.4609 41.4531 43.8672 41.4531 43.8672L35.875 46.3984L35.9219 46.375Z" fill="white"/>
<path d="M139.094 84.7188C139.375 80.8047 139.727 72.6719 138.578 66.0156C138.32 64.6562 137.922 63.3437 137.383 62.0781C137.266 61.7969 137.195 61.5156 137.078 61.2578V61.1406L136.445 60.0156C136.398 59.9453 136.352 59.8516 136.305 59.7813L134.57 56.7344H134.219C133.422 55.7734 132.555 54.8594 131.594 53.9688C129.461 52.0469 127.422 50.8281 126.391 50.2656C122.969 47.9688 119.055 46.7969 114.719 46.7969C110.383 46.7969 110.453 47.0547 108.18 47.5937L107.312 47.8047C101.289 49.2109 98.5469 49.8672 92.9922 49.8672C87.4375 49.8672 91.164 49.8203 90.0625 49.8203C82.2812 49.5859 74.0781 48.4375 70.1172 47.875C69.6016 47.8047 69.1328 47.7344 68.7812 47.6875C67.7734 47.5469 66.7422 47.4766 65.7344 47.4766C63.7656 47.4766 62.1719 47.7578 60.8594 48.0859L60.2031 45.0391C60.0391 44.2891 59.3125 43.7734 58.5625 43.8437L54.625 44.1953C53.8281 44.2656 53.0547 44.4297 52.3281 44.5938C51.6016 41.9219 50.2187 40.5156 48.9062 39.7422C47.5703 38.9687 46.2812 38.875 45.6719 38.875C44.1719 38.875 41.0312 39.4141 39.2266 43.6328C38.7344 43.6328 38.2891 43.7031 37.8672 43.7969C37.6328 43.8438 37.2344 43.9375 36.6953 44.125C36.2734 43.8438 35.8984 43.6094 35.6875 43.4219C34.4219 42.4141 32.8984 41.875 31.3281 41.875C28.75 41.875 26.4297 43.3281 25.2812 45.6953C24.0156 48.2734 24.3906 51.4609 26.1953 53.8047C26.4766 54.1328 26.875 54.6016 27.3203 55.0703C26.2422 56.7812 25.0937 58.4219 24.4609 59.0547C21.6016 60.9297 20.0547 64.4922 20.6172 68.0312C21.1797 71.5703 23.6406 74.3125 27.1094 75.3438C28.7734 76.5156 30.9297 77.1719 33.2031 77.1719C35.4766 77.1719 33.9297 77.1719 34.2812 77.125C36.4844 78.1563 38.8516 78.7422 40.9844 78.7422H41.3125C41.6641 78.7422 42.0156 78.7422 42.3437 78.7422C44.0547 83.2891 47.3594 91.1875 51.2031 94.9375C52.2344 95.9219 53.125 96.6719 53.875 97.2344C54.3203 98.3828 54.6484 99.3438 54.9531 100.258C55.2578 101.102 55.5156 101.922 55.8437 102.742C55.5625 104.219 55.3984 105.625 55.2812 106.82L53.6172 107.922L53.3125 108.133L53.0312 108.367C51.4844 109.703 49.8906 112.117 51.0625 116.102L51.1328 116.312L51.2031 116.547L51.625 117.672L51.7656 118.094L52 118.469C53.2656 120.766 55.6797 122.172 58.3047 122.172H63.6719C65.1719 122.172 68.0312 121.703 70.1172 118.492L70.375 118.117L70.5859 117.695L71.7109 115.188L72.0625 114.391L72.2031 113.5C72.4375 111.719 71.875 110.359 71.5234 109.586L72.4141 102.648C72.6484 102.227 72.9531 101.688 73.2578 101.125C73.6797 100.352 74.1016 99.4844 74.5234 98.5469C74.8281 97.8438 75.1328 97.0469 75.4141 96.1797H75.6016C75.7187 96.1797 75.8359 96.1797 75.9766 96.1797C76.5156 96.1797 77.0781 96.2266 77.6172 96.3438C78.1797 96.4609 79.1641 96.6016 80.4297 96.7656C81.2266 98.875 82.6797 100.797 84.6719 102.32L84.2031 106C84.0625 107.266 84.7187 108.555 85.9141 109.047C86.2422 109.188 86.5703 109.234 86.8984 109.234C88.2578 109.234 89.4297 108.227 89.5937 106.844L89.7812 105.32L89.8281 105.062C91.6562 105.672 93.6484 106.07 95.7344 106.188L95.3594 109.234C95.1719 110.711 96.25 112.094 97.75 112.281C97.8672 112.281 97.9844 112.328 98.0781 112.328C99.4375 112.328 100.609 111.297 100.797 109.938L101.312 105.859C105.25 105.109 108.648 103.375 111.109 101.055C111.18 101.008 111.25 100.961 111.297 100.891C111.461 101.125 111.672 101.312 111.859 101.547C111.977 101.688 112.094 101.828 112.234 101.992C112.422 102.203 112.586 102.461 112.797 102.648C112.891 103.328 112.937 104.195 112.914 105.016C112.914 105.461 112.867 105.906 112.844 106.305C110.523 108.016 108.508 109.82 107.734 112.211C107.359 113.336 107.219 114.484 107.336 115.609C107.43 116.523 107.687 117.414 108.109 118.234C109.281 120.625 111.789 122.172 114.437 122.172H120.18C122.992 122.172 125.5 120.484 126.578 117.883L127.937 114.578C128.219 113.875 128.359 113.125 128.43 112.398C128.641 108.766 129.039 106.188 129.367 105.32C129.461 105.039 129.578 104.734 129.695 104.43C129.742 104.336 129.742 104.266 129.789 104.195L132.555 106.305L136.258 102.32C139.867 98.4063 142.211 90.4141 139.164 84.7422L139.094 84.7188ZM45.6719 44.8516C45.9766 44.8516 46.2812 45.2266 46.5391 46.1406C47.2656 48.7188 48.1328 50.2188 49.375 51.3438C49.4687 51.4375 49.5391 51.5312 49.6328 51.6016L44.8047 49.9141C44.8047 49.9141 44.0078 49.1875 44.0312 48.9062C44.2656 47.1016 44.9687 44.8281 45.6719 44.8281V44.8516ZM43.5156 58.2812C43.5156 58.6094 43.4219 60.1562 42.3437 60.6719C42.0156 60.8125 41.6875 60.8359 41.3594 60.8125C40.5859 60.6953 39.9062 60.2031 39.7187 60.1094C39.5312 59.9688 39.4375 59.7578 39.4375 59.5C39.4375 59.1719 39.5312 57.625 40.6094 57.1094C40.8437 57.0156 41.0781 56.9688 41.3125 56.9688C42.1797 56.9688 43 57.5547 43.2109 57.6953C43.3984 57.8359 43.5156 58.0703 43.4922 58.3047L43.5156 58.2812ZM106.07 98.6172C106.141 99.7188 105.227 100.867 103.82 101.312C103.68 101.359 103.516 101.383 103.375 101.43C103.281 101.43 103.187 101.477 103.094 101.477C101.781 101.641 100.562 101.078 100.211 100.07C99.8125 98.8516 100.773 97.4219 102.391 96.9062C102.555 96.8594 102.695 96.8125 102.859 96.7891C102.953 96.7891 103.047 96.7656 103.141 96.7422C104.477 96.5781 105.672 97.1172 106 98.1484C106.047 98.2891 106.07 98.4531 106.094 98.6172H106.07ZM133.539 95.2656C133.492 95.3594 133.469 95.4766 133.422 95.5703C133.234 95.9922 133.023 96.3906 132.789 96.7891C132.742 96.8594 132.719 96.9531 132.672 97.0234C132.391 97.4688 132.086 97.8672 131.781 98.2188C130.516 97.2813 128.781 94.0234 128.687 91.2344C128.594 88.1875 130.703 86.1953 130.703 86.1953C131.148 83.5234 131.969 77.0781 131.5 72.5078C131.43 71.6875 131.312 70.9375 131.148 70.2578C131.031 69.7891 130.867 69.3906 130.703 69.0156C130.656 68.875 130.586 68.7344 130.539 68.5937C130.539 68.5937 130.539 68.6406 130.539 68.6641C130.539 68.6641 130.539 68.6172 130.516 68.5937C130.422 71.0781 129.695 73.4219 128.781 75.6719C125.992 76.0938 121.141 78.0625 118.492 80.2422C117.32 81.2031 116.57 82.1641 116.57 83.0781C116.57 85.5156 119.922 88.5859 123.062 89.9688C123.602 90.2031 124.141 90.3906 124.656 90.5312C124.773 92.1719 125.148 93.6719 125.734 94.9844C126.109 95.7812 126.156 96.7188 125.805 97.5391C125.219 99.0625 124.258 101.523 123.625 103.352C122.734 105.906 122.43 111.086 122.359 112.023C122.359 112.117 122.312 112.234 122.289 112.305L120.977 115.586C120.836 115.914 120.508 116.148 120.133 116.148H114.391C113.992 116.148 113.617 115.914 113.43 115.562C113.266 115.234 113.172 114.742 113.383 114.109C113.828 112.75 117.32 110.477 118.023 109.938C118.398 109.633 118.891 107.312 118.914 104.734C118.914 102.812 118.703 100.75 118.023 99.25C117.883 99.1562 117.789 99.0625 117.672 98.9688C116.43 97.9844 115.516 96.5547 114.812 95.1719C114.766 95.125 114.766 95.0781 114.742 95.0312C114.203 93.9531 113.828 92.8516 113.547 92.0313C113.266 91.1875 113.125 90.5781 113.031 90.3906C112.797 89.9453 112.211 85.2578 108.695 85.2578C105.18 85.2578 105.93 85.8203 103.937 87.2734C103.703 87.4375 103.469 87.6016 103.211 87.7891C98.9453 90.5078 92.875 91.2109 87.7891 91.2109C82.7031 91.2109 83.5234 91.0703 81.9297 90.9062C81.25 90.8359 80.6641 90.7656 80.1484 90.6953C79.4922 90.6016 79.0234 90.5312 78.7656 90.4609C77.875 90.2969 76.9844 90.2031 76.0469 90.1797C75.9062 90.1797 75.7656 90.1797 75.625 90.1797C74.3125 90.1797 73 90.3203 71.7578 90.6953C71.1484 90.8594 70.5859 91.0703 70.0234 91.3047C69.9766 91.3047 69.9297 91.3281 69.8828 91.3516H69.8594C70.3516 92.4531 69.8125 94.3516 69.0156 96.1562C68.0312 98.4531 66.625 100.609 66.625 100.609L65.4531 109.797C65.4062 111.156 66.2969 112.281 66.25 112.68L65.125 115.188C64.7031 115.82 64.2812 116.148 63.6719 116.148H58.3047C57.8828 116.148 57.4609 115.914 57.25 115.539L56.8281 114.391C56.5937 113.688 56.5 113.312 56.9453 112.938L61.0937 110.172C61.0937 110.172 61.1875 105.789 62.1719 101.875C61 100.211 60.7187 97.7031 58.7266 93.2031C58.7266 93.2031 57.625 92.7109 55.4219 90.6016C52.2344 87.5078 49 79.2344 47.9219 76.3516C47.1016 74.125 46.9141 70.7266 45.8125 70.7266C44.7109 70.7266 45.6016 70.7734 45.5078 70.7969C44.875 71.1016 43.8203 72.1562 43.0703 72.5078C42.625 72.7188 41.9687 72.7422 41.3359 72.7422H41.0078C39.0859 72.7422 36.7187 71.8281 35.0547 70.6094C34.7266 70.9844 34.0234 71.1719 33.2266 71.1719C32.4297 71.1719 31.0937 70.8672 30.4141 70.2812C30.4141 70.2812 30.3672 70.2578 30.3437 70.2344C31.0469 69.4375 31.7031 68.6875 32.1953 68.0547C32.3828 67.8203 32.5234 67.5859 32.6875 67.3984C32.8281 67.2109 32.9453 67.0234 33.0391 66.8828C33.2266 66.6016 33.3203 66.4375 33.3203 66.4375C33.4609 66.2266 33.4141 65.9453 33.2031 65.7812C32.9922 65.6406 32.6875 65.6641 32.5234 65.8984C32.5234 65.8984 32.4062 66.0625 32.2187 66.3203C32.125 66.4609 32.0078 66.6016 31.8672 66.7656C31.7266 66.9297 31.5391 67.1406 31.3516 67.3516C30.7422 68.0312 29.9453 68.8516 29.0547 69.6719C25.9141 68.9687 25.9609 65.2188 27.8359 64.0938C29.875 62.875 33.8125 56.2891 34.8906 54.1094C34.8906 54.1094 31.8203 51.1797 30.9766 50.125C30.3203 49.2812 30.6016 47.9219 31.375 47.9219C32.1484 47.9219 31.7969 47.9922 32.0078 48.1797C33.2266 49.1641 36.1797 50.8281 37.0234 51.3438C37.0234 51.3438 38.3594 49.8437 39.1094 49.7031C39.2734 49.6562 39.4609 49.6562 39.6953 49.6562C40.3516 49.6562 42.5312 50.0547 43.0234 50.1484C43.0703 50.1484 43.0937 50.1484 43.1172 50.1719L34.1172 63.5078C33.625 64.3047 34.4453 65.3125 35.3125 65.6172C39.1328 67.0234 43.1406 68.4297 46.9844 64.2578L54.8125 54.625C55.4922 54.7656 56.6875 55.0234 57.8828 55.0234C59.0781 55.0234 58.3984 55.0234 58.6797 54.9766C60.3203 54.7656 62.1953 53.5 65.7578 53.5C69.3203 53.5 66.4375 53.5 66.7891 53.5234C66.8125 53.5234 66.8359 53.5234 66.8828 53.5234C67.2344 53.5234 67.6094 53.5703 68.0078 53.6406C70.1172 53.9219 75.1562 54.6953 81.0156 55.2344C82.5625 57.25 84.6719 60.1562 86.6406 62.7812C90.0156 67.2812 94.0937 69.0156 100.141 67.9844C106.187 66.9063 109.187 64.4688 113.711 67.0938C118.211 69.7422 122.172 69.6719 124.469 69.1094C126.484 68.6172 129.086 66.7187 130.375 64.4219C130.703 63.8828 130.961 63.3203 131.125 62.7812C131.852 64.0234 132.414 65.4531 132.695 67.0469C134.125 75.25 132.953 86.4297 132.953 86.4297C134.969 88.3281 134.805 92.2188 133.562 95.2891L133.539 95.2656Z" fill="#4B4B4B"/>
<path d="M81.1562 76C80.4062 75.2969 79.3984 74.9219 78.4375 74.5469C75.1562 73.3515 71.9453 72.0625 68.7578 70.6562C65.8281 69.3672 63.0625 67.6328 60.0859 66.414C58.3984 65.7109 55.7266 65.2422 56.125 67.914C56.6172 71.1015 60.5781 72.9531 61.6094 75.9297C61.75 76.3515 61.8672 76.7969 61.7734 77.2422C61.6094 77.9687 60.8594 78.2734 60.1797 78.3437C58.7031 78.5078 56.0781 77.6406 55.3516 79.4453C55.0469 80.2422 55.6797 81.0625 56.3125 81.6484C57.6719 82.8906 59.2656 83.875 60.9766 84.5547C62.2422 85.0469 63.5547 85.3984 64.9141 85.3984C67.5391 85.3984 69.5078 83.4297 72.1094 83.1484C72.9531 83.0547 73.7969 83.0312 74.6406 82.9609C75.9766 82.8437 77.3125 82.6562 78.5781 82.0703C80.9453 80.9922 83.6641 78.6719 81.3672 76.2344C81.2969 76.164 81.2266 76.0703 81.1328 76H81.1562Z" fill="#4B4B4B"/>
</g>
<defs>
<clipPath id="clip0_23_196">
<rect width="120" height="120" fill="white" transform="translate(20.5 20.5)"/>
</clipPath>
</defs>
</svg>
