<svg width="75" height="61" viewBox="0 0 75 61" fill="none" xmlns="http://www.w3.org/2000/svg">
<g clip-path="url(#clip0_24_234)">
<path d="M26.7728 16.4797L19.2079 20.6653C18.9242 20.821 18.75 21.1109 18.75 21.4238V29.7997C18.75 30.1127 18.9242 30.401 19.2079 30.5582L26.7744 34.7469C27.0565 34.9026 27.4065 34.9026 27.6886 34.7469L35.2535 30.5582C35.5341 30.401 35.7083 30.1127 35.7083 29.7997V21.4238C35.7083 21.1109 35.5341 20.8226 35.2505 20.6653L27.687 16.4797C27.5452 16.4011 27.3864 16.3625 27.2292 16.3625C27.0704 16.3625 26.9131 16.4011 26.7713 16.4797M65.6953 24.02L64.4342 24.7168C64.3864 24.743 64.3587 24.7908 64.3587 24.8433V26.24C64.3587 26.2924 64.388 26.3402 64.4342 26.3664L65.6953 27.0648C65.7431 27.091 65.8001 27.091 65.8479 27.0648L67.109 26.3664C67.1553 26.3402 67.1845 26.2924 67.1845 26.24V24.8433C67.1845 24.7908 67.1553 24.743 67.1075 24.7168L65.8464 24.02C65.8232 24.0061 65.797 24 65.7708 24C65.7446 24 65.7184 24.0061 65.6953 24.02Z" fill="#388E3C"/>
<path d="M55.3662 7.60284L51.6832 5.5478C51.5675 5.48305 51.4257 5.48459 51.3116 5.55242C51.1975 5.62026 51.1266 5.74205 51.1266 5.87463L51.1251 18.2881L47.7288 16.4088C47.587 16.3302 47.4282 16.2917 47.2709 16.2917C47.1137 16.2917 46.9549 16.3302 46.813 16.4088H46.8146L39.2496 20.5945C38.966 20.7502 38.7917 21.04 38.7917 21.3514V29.7273C38.7917 30.0403 38.966 30.3285 39.2496 30.4858L46.8161 34.6745C47.0982 34.8302 47.4482 34.8302 47.7303 34.6745L55.2953 30.4858C55.5759 30.3301 55.7501 30.0403 55.7501 29.7273V8.25651C55.7501 7.98517 55.6021 7.73542 55.3662 7.60284ZM50.9185 27.7894L47.4806 29.6934C47.3526 29.7643 47.1938 29.7643 47.0659 29.6934L43.6264 27.7894C43.4954 27.7185 43.4167 27.5859 43.4167 27.4441V23.6362C43.4167 23.4943 43.4954 23.3633 43.6249 23.2908L47.0643 21.3884C47.1291 21.353 47.1985 21.336 47.2709 21.336C47.3434 21.336 47.4143 21.3545 47.479 21.3884L50.917 23.2908C51.0465 23.3633 51.1251 23.4959 51.1251 23.6377V27.4456C51.1251 27.5859 51.0465 27.7185 50.9185 27.7894Z" fill="#37474F"/>
<path d="M26.7728 16.4797L18.75 29.7997C18.75 30.1127 18.9242 30.401 19.2079 30.5582L26.7744 34.7469C27.0565 34.9026 27.4065 34.9026 27.6886 34.7469L35.7083 21.4238C35.7083 21.1109 35.5341 20.8226 35.2505 20.6653L27.687 16.4797C27.5452 16.4011 27.3864 16.3625 27.2292 16.3625C27.0704 16.3625 26.9131 16.4011 26.7713 16.4797" fill="#2E7D32"/>
<path d="M26.7728 16.4797L19.2079 20.6653C18.9242 20.821 18.75 21.1109 18.75 21.4238L26.7728 34.7469C27.055 34.9026 27.4049 34.9026 27.687 34.7469L35.252 30.5582C35.5341 30.401 35.7083 30.1127 35.7083 29.7997L27.687 16.4797C27.5452 16.4011 27.3864 16.3625 27.2292 16.3625C27.0704 16.3625 26.9131 16.4011 26.7713 16.4797" fill="#4CAF50"/>
<path d="M73.7921 20.5944L66.2287 16.4088C66.0869 16.3302 65.9281 16.2916 65.7708 16.2916C65.6136 16.2916 65.4548 16.3302 65.313 16.4088L57.7495 20.5944C57.4674 20.7501 57.2917 21.0461 57.2917 21.3699V29.7118C57.2917 30.034 57.4674 30.3316 57.7495 30.4873L65.316 34.676C65.5997 34.8332 65.9466 34.8332 66.2302 34.676L69.719 32.7443C70.0382 32.567 70.0366 32.1091 69.716 31.9334L62.1248 27.7909C61.9968 27.7185 61.9167 27.5843 61.9167 27.4394V23.6377C61.9167 23.4958 61.9938 23.3648 62.1171 23.297L65.5627 21.3915H65.5612C65.6259 21.356 65.6968 21.339 65.7693 21.339C65.8418 21.339 65.9127 21.3575 65.9774 21.3915L69.423 23.2985C69.5464 23.3663 69.6235 23.4974 69.6235 23.6392V26.741C69.6235 26.8736 69.6944 26.997 69.81 27.0632C69.9256 27.128 70.0675 27.128 70.1831 27.0617L73.88 24.9142C74.1082 24.7816 74.25 24.5365 74.25 24.2713V21.373C74.25 21.0477 74.0742 20.7501 73.7921 20.5944ZM16.7505 20.5944L9.18704 16.4088C9.04521 16.3302 8.88642 16.2916 8.72917 16.2916C8.57192 16.2916 8.41313 16.3302 8.27129 16.4088L0.707875 20.5944C0.42575 20.7501 0.25 21.0461 0.25 21.3699V32.8784C0.25 33.011 0.320917 33.1343 0.436542 33.2006C0.552167 33.2654 0.694 33.2654 0.809625 33.1991L4.50654 31.0515C4.73471 30.919 4.875 30.6738 4.875 30.4087V23.6361C4.875 23.4943 4.95208 23.3632 5.07542 23.2954L8.52104 21.3899C8.58579 21.3545 8.65671 21.3375 8.72917 21.3375C8.80163 21.3375 8.87254 21.356 8.93729 21.3899L12.3829 23.297C12.5062 23.3648 12.5833 23.4958 12.5833 23.6377V30.4102C12.5833 30.6754 12.7236 30.9205 12.9533 31.0531L16.6502 33.2006C16.7659 33.2669 16.9077 33.2669 17.0233 33.2022C17.1374 33.1343 17.2083 33.011 17.2083 32.8784V21.3714C17.2083 21.0477 17.0326 20.7501 16.7505 20.5944Z" fill="#37474F"/>
</g>
<defs>
<clipPath id="clip0_24_234">
<rect width="74" height="74" fill="white" transform="translate(0.25 -13)"/>
</clipPath>
</defs>
</svg>
