<svg width="31" height="30" viewBox="0 0 31 30" fill="none" xmlns="http://www.w3.org/2000/svg">
<path d="M28.6274 6.23502L16.2292 28.405C15.973 28.8625 15.3155 28.8656 15.0555 28.41L2.41173 6.23689C2.1286 5.74064 2.55298 5.13939 3.11548 5.24002L15.5274 7.45877C15.6067 7.47314 15.6874 7.47252 15.7667 7.45814L27.9186 5.24314C28.4792 5.14064 28.9055 5.73752 28.6274 6.23502Z" fill="url(#paint0_linear_24_288)"/>
<path d="M21.5737 1.88122L12.4768 3.66372C12.3274 3.69309 12.2168 3.81997 12.2074 3.97184L11.6481 13.4225C11.6349 13.645 11.8393 13.8181 12.0568 13.7675L14.5893 13.1831C14.8262 13.1287 15.0406 13.3368 14.9918 13.5756L14.2393 17.26C14.1887 17.5081 14.4212 17.72 14.6637 17.6462L16.2281 17.1712C16.4706 17.0975 16.7037 17.31 16.6524 17.5587L15.4568 23.3462C15.3818 23.7081 15.8637 23.9056 16.0643 23.595L16.1987 23.3875L23.6112 8.59434C23.7356 8.34684 23.5212 8.06434 23.2493 8.11684L20.6424 8.61997C20.3974 8.66747 20.1893 8.43934 20.2581 8.19934L21.9593 2.30059C22.0281 2.06184 21.8193 1.83309 21.5737 1.88122Z" fill="url(#paint1_linear_24_288)"/>
<defs>
<linearGradient id="paint0_linear_24_288" x1="8.91173" y1="-0.566231" x2="24.343" y2="20.3894" gradientUnits="userSpaceOnUse">
<stop stop-color="#41D1FF"/>
<stop offset="1" stop-color="#9231BE"/>
</linearGradient>
<linearGradient id="paint1_linear_24_288" x1="16.5287" y1="3.27247" x2="23.7968" y2="53.1312" gradientUnits="userSpaceOnUse">
<stop stop-color="#FED100"/>
<stop offset="1" stop-color="#E36001"/>
</linearGradient>
</defs>
</svg>
